<?xml version="1.0" encoding="UTF-8"?>
<svg id="Layer_1" data-name="Layer 1" xmlns="http://www.w3.org/2000/svg" viewBox="0 0 65.69 65.69">
  <defs>
    <style>
      .cls-1 {
        fill: none;
        stroke: #000;
        stroke-linecap: round;
        stroke-linejoin: round;
        stroke-width: 2px;
      }
    </style>
  </defs>
  <path class="cls-1" d="M31.55,31.43l3.4,2.54"/>
  <path class="cls-1" d="M28.69,42.96c1.91-.28,3.24-2.06,2.96-3.97s-2.06-3.24-3.97-2.96-3.24,2.06-2.96,3.97c.1.66-.06,1.33-.44,1.88-.33.44-.24,1.07.2,1.4.21.16.48.23.74.19l3.46-.5Z"/>
  <path class="cls-1" d="M31.55,38.54l9.65-12.93c.7-.94.51-2.27-.43-2.97-.94-.7-2.27-.51-2.97.43h0l-9.65,12.93"/>
  <path class="cls-1" d="M47.83,39.22l6-6-6-6"/>
  <path class="cls-1" d="M17.86,27.22l-6,6,6,6"/>
</svg>